<?xml version="1.0" encoding="UTF-8" standalone="no"?><!DOCTYPE svg PUBLIC "-//W3C//DTD SVG 1.1//EN" "http://www.w3.org/Graphics/SVG/1.1/DTD/svg11.dtd"><svg width="100%" height="100%" viewBox="0 0 1170 1603" version="1.1" xmlns="http://www.w3.org/2000/svg" xmlns:xlink="http://www.w3.org/1999/xlink" xml:space="preserve" xmlns:serif="http://www.serif.com/" style="fill-rule:evenodd;clip-rule:evenodd;stroke-linejoin:round;stroke-miterlimit:2;"><path d="M45.529,1602.614c-12.075,0 -23.655,-4.797 -32.194,-13.335c-8.538,-8.538 -13.335,-20.119 -13.335,-32.194c0,-229.522 0,-1258.396 0,-1504.213c0,-29.2 23.672,-52.872 52.872,-52.872c158.231,0 625.968,0 769.834,0c11.296,0 22.129,4.487 30.117,12.475c7.987,7.987 12.475,18.821 12.475,30.117c0,132.218 0,534.169 0,658.009c-0,9.738 3.868,19.077 10.754,25.963c6.886,6.886 16.225,10.754 25.963,10.754c56.979,0 166.32,0 225.874,0c10.906,0 21.366,4.333 29.078,12.045c7.712,7.712 12.045,18.172 12.045,29.078c0,148.376 0,654.558 0,790.395c-0,18.656 -15.124,33.779 -33.779,33.779c-166.445,-0 -898.973,-0 -1089.702,-0Z"/><path d="M637.13,172.131c11.506,0 20.833,9.327 20.833,20.833c-0,82.63 -0,386.8 -0,469.43c-0,11.506 -9.327,20.833 -20.833,20.833c-77.049,0 -345.384,0 -422.433,0c-11.506,-0 -20.833,-9.327 -20.833,-20.833c0,-82.63 0,-386.8 0,-469.43c0,-11.506 9.327,-20.833 20.833,-20.833c77.049,-0 345.384,-0 422.433,-0Z" style="fill:#fff;"/><path d="M981.07,963.743l0,484.661c0,8.916 -7.239,16.155 -16.155,16.155l-290.796,0c-8.916,0 -16.155,-7.239 -16.155,-16.155l0,-484.661c0,-8.916 7.239,-16.155 16.155,-16.155l290.796,0c8.916,0 16.155,7.239 16.155,16.155Z" style="fill:#fff;"/><path d="M516.971,865.086l0,583.317c0,8.916 -7.239,16.155 -16.155,16.155l-290.796,0c-8.916,0 -16.155,-7.239 -16.155,-16.155l0,-583.317c0,-8.916 7.239,-16.155 16.155,-16.155l290.796,0c8.916,0 16.155,7.239 16.155,16.155Z" style="fill:#fff;"/></svg>